<svg width="48" height="48" viewBox="0 0 48 48" fill="none" xmlns="http://www.w3.org/2000/svg">
<path d="M35.5205 24C35.5205 26.1208 37.2397 27.84 39.3605 27.84C41.4813 27.84 43.2005 26.1208 43.2005 24C43.2005 21.8792 41.4813 20.16 39.3605 20.16C37.2397 20.16 35.5205 21.8792 35.5205 24ZM35.5205 24H25.2005M35.5205 8.63999C35.5205 10.7608 37.2397 12.48 39.3605 12.48C41.4813 12.48 43.2005 10.7608 43.2005 8.63999C43.2005 6.51922 41.4813 4.79999 39.3605 4.79999C37.2397 4.79999 35.5205 6.51922 35.5205 8.63999ZM35.5205 8.63999H13.1996M35.5205 39.36C35.5205 41.4808 37.2397 43.2 39.3605 43.2C41.4813 43.2 43.2005 41.4808 43.2005 39.36C43.2005 37.2392 41.4813 35.52 39.3605 35.52C37.2397 35.52 35.5205 37.2392 35.5205 39.36ZM35.5205 39.36H24.4805C23.4201 39.36 22.5605 38.5004 22.5605 37.44V10.56M12.4796 8.63999C12.4796 10.7608 10.7603 12.48 8.63956 12.48C6.51879 12.48 4.79956 10.7608 4.79956 8.63999C4.79956 6.51921 6.51879 4.79999 8.63956 4.79999C10.7603 4.79999 12.4796 6.51921 12.4796 8.63999Z" stroke="white" stroke-width="2" stroke-linecap="round"/>
</svg>
