<svg width="166" height="191" viewBox="0 0 166 191" fill="none" xmlns="http://www.w3.org/2000/svg">
<path fill-rule="evenodd" clip-rule="evenodd" d="M107.57 9.05986C109.2 9.98986 111.57 11.3199 113.65 11.0599C113.907 11.0151 114.15 10.9118 114.361 10.758C114.571 10.6042 114.744 10.4041 114.864 10.173C114.985 9.942 115.051 9.68627 115.058 9.42562C115.064 9.16497 115.01 8.90638 114.9 8.66986C114.321 7.45214 113.448 6.39728 112.36 5.59986V5.34986C114.36 4.71986 117.09 3.65986 116.19 1.76986C115.951 1.22986 115.53 0.790987 115 0.529865C112.8 -0.540135 109.8 0.249865 107.6 0.829865C105.7 1.33986 103.92 1.59986 103.31 3.13986C102.14 5.92986 104.7 7.41986 107.57 9.05986ZM115.21 1.45986C116.91 3.02986 114.05 4.06986 112.98 4.45986C112.811 4.51727 112.637 4.56075 112.46 4.58986C112.498 3.92296 112.333 3.26024 111.989 2.68779C111.645 2.11535 111.137 1.65964 110.53 1.37986C109.965 1.2712 109.394 1.19441 108.82 1.14986C110.55 0.799865 113.91 0.249865 115.21 1.45986ZM109.16 8.58986C109.843 8.59727 110.508 8.37715 111.051 7.96426C111.594 7.55138 111.985 6.96926 112.16 6.30986C113.035 6.96474 113.749 7.80921 114.25 8.77986C114.52 9.31986 114.4 10.3899 113.62 10.4199C111.461 10.3315 109.375 9.61177 107.62 8.34986C108.126 8.47134 108.641 8.5516 109.16 8.58986ZM88.6202 46.5299C89.3178 46.7341 89.989 47.0194 90.6202 47.3799C90.6386 47.3969 90.6602 47.4102 90.6837 47.419C90.7072 47.4277 90.7322 47.4317 90.7573 47.4308C90.7824 47.4299 90.807 47.424 90.8298 47.4135C90.8526 47.4031 90.8732 47.3882 90.8902 47.3699C90.9073 47.3515 90.9206 47.3299 90.9293 47.3064C90.9381 47.2829 90.9421 47.2579 90.9411 47.2328C90.9402 47.2077 90.9344 47.1831 90.9239 47.1603C90.9135 47.1375 90.8986 47.1169 90.8802 47.0999C90.4838 46.491 89.9119 46.0168 89.2402 45.7399C88.6712 45.4901 88.0566 45.3611 87.4352 45.3611C86.8138 45.3611 86.1992 45.4901 85.6302 45.7399L85.3702 45.8899C84.5002 46.5699 86.8002 45.9999 88.6202 46.5299ZM66.1602 74.9199C66.8158 74.4681 67.271 73.7799 67.4302 72.9999C67.437 72.8545 67.3956 72.711 67.3124 72.5917C67.2292 72.4723 67.1089 72.3838 66.9702 72.3399C66.3602 72.2099 65.4902 72.9499 65.2402 73.8799C65.0802 74.5098 65.4002 75.4398 66.1602 74.9199ZM59.6202 85.1299C60.3285 84.7635 60.8665 84.1359 61.1202 83.3799C61.1449 83.2373 61.122 83.0906 61.0552 82.9623C60.9883 82.8341 60.8812 82.7313 60.7502 82.6699C60.1602 82.4599 59.2002 83.0799 58.8402 83.9799C58.5902 84.5899 58.7902 85.5599 59.6202 85.1299ZM106.89 78.5199C106.789 78.4416 106.662 78.4066 106.535 78.4226C106.409 78.4385 106.293 78.5041 106.215 78.6049C106.137 78.7056 106.102 78.8334 106.118 78.96C106.134 79.0865 106.199 79.2016 106.3 79.2799C106.581 79.5084 106.89 79.6999 107.22 79.8499C107.279 79.8735 107.341 79.8854 107.404 79.8849C107.467 79.8843 107.53 79.8714 107.588 79.8468C107.646 79.8222 107.698 79.7864 107.742 79.7414C107.787 79.6965 107.822 79.6433 107.845 79.5849C107.869 79.5264 107.881 79.4639 107.88 79.4009C107.88 79.3378 107.867 79.2755 107.842 79.2175C107.818 79.1594 107.782 79.1068 107.737 79.0626C107.692 79.0184 107.639 78.9835 107.58 78.9599C107.333 78.8428 107.101 78.6949 106.89 78.5199ZM103.51 74.7199C103.454 74.7474 103.404 74.786 103.362 74.8334C103.321 74.8807 103.29 74.9359 103.27 74.9955C103.251 75.0552 103.243 75.1182 103.248 75.1807C103.253 75.2433 103.271 75.3042 103.3 75.3599C103.45 75.6699 103.61 75.9499 103.76 76.2199C103.83 76.3152 103.932 76.3817 104.047 76.4067C104.162 76.4317 104.282 76.4134 104.385 76.3553C104.488 76.2972 104.565 76.2034 104.603 76.0917C104.641 75.98 104.636 75.8584 104.59 75.7499C104.44 75.4899 104.29 75.2199 104.15 74.9299C104.092 74.8178 103.993 74.733 103.873 74.6937C103.753 74.6545 103.623 74.6638 103.51 74.7199ZM101.92 71.7099C101.964 71.8189 102.047 71.908 102.152 71.9603C102.257 72.0126 102.378 72.0245 102.491 71.9937C102.605 71.9629 102.703 71.8915 102.767 71.7931C102.832 71.6947 102.858 71.5761 102.84 71.4599C102.75 71.1599 102.67 70.8599 102.6 70.5499C102.589 70.4853 102.564 70.4237 102.527 70.3691C102.491 70.3144 102.444 70.2678 102.389 70.2321C102.334 70.1964 102.272 70.1724 102.207 70.1616C102.143 70.1507 102.076 70.1532 102.013 70.169C101.949 70.1847 101.889 70.2134 101.837 70.2532C101.785 70.2929 101.741 70.343 101.709 70.4003C101.677 70.4575 101.657 70.5207 101.65 70.586C101.644 70.6513 101.65 70.7173 101.67 70.7799C101.75 71.0999 101.83 71.4099 101.92 71.7099ZM100.37 65.4899C100.245 65.5025 100.129 65.5642 100.048 65.6616C99.9679 65.7589 99.9291 65.884 99.9402 66.0099C99.9402 66.2399 100.02 66.7399 100.05 67.0099C100.056 67.0727 100.075 67.1336 100.105 67.189C100.136 67.2444 100.177 67.2932 100.226 67.3324C100.276 67.3715 100.332 67.4004 100.393 67.4171C100.454 67.4339 100.518 67.4382 100.58 67.4299C100.704 67.4124 100.816 67.3472 100.893 67.2482C100.97 67.1492 101.004 67.0242 100.99 66.8999C100.99 66.6599 100.91 66.2099 100.89 65.9699C100.889 65.9037 100.874 65.8386 100.847 65.7783C100.82 65.7179 100.781 65.6637 100.733 65.6189C100.684 65.574 100.627 65.5395 100.565 65.5173C100.502 65.4951 100.436 65.4858 100.37 65.4899ZM100.81 62.3999C100.9 62.1099 100.99 61.8399 101.09 61.5599C101.113 61.5041 101.124 61.4445 101.123 61.3844C101.122 61.3243 101.109 61.265 101.085 61.21C101.06 61.155 101.025 61.1054 100.982 61.0642C100.938 61.0229 100.887 60.9909 100.83 60.9699C100.717 60.9272 100.592 60.9306 100.482 60.9792C100.372 61.0278 100.285 61.1178 100.24 61.2299C100.12 61.5299 100.02 61.8299 99.9302 62.1399C99.9054 62.2534 99.9245 62.3722 99.9837 62.4723C100.043 62.5723 100.138 62.6463 100.249 62.6792C100.361 62.7121 100.481 62.7016 100.585 62.6498C100.689 62.598 100.769 62.5087 100.81 62.3999ZM92.6002 51.9999C92.7117 52.0468 92.8372 52.0479 92.9495 52.003C93.0618 51.958 93.1518 51.8707 93.2002 51.7599C93.3202 51.4899 93.4402 51.2199 93.5802 50.9599C93.6368 50.8524 93.6487 50.7268 93.6131 50.6107C93.5775 50.4945 93.4973 50.3972 93.3902 50.3399C93.2823 50.2858 93.1576 50.2754 93.0422 50.3108C92.9268 50.3462 92.8294 50.4246 92.7702 50.5299C92.6202 50.8199 92.4802 51.0999 92.3602 51.3999C92.3133 51.5113 92.3122 51.6368 92.3571 51.7491C92.402 51.8614 92.4894 51.9515 92.6002 51.9999ZM87.2502 49.3299C87.3626 49.0567 87.4895 48.7896 87.6302 48.5299C87.6644 48.4763 87.6871 48.4163 87.6969 48.3536C87.7067 48.2908 87.7035 48.2267 87.6873 48.1653C87.6711 48.1039 87.6424 48.0465 87.603 47.9967C87.5636 47.947 87.5142 47.9059 87.4581 47.8761C87.4021 47.8463 87.3404 47.8285 87.2771 47.8237C87.2138 47.8189 87.1501 47.8273 87.0902 47.8483C87.0303 47.8694 86.9754 47.9026 86.9289 47.9458C86.8824 47.9891 86.8454 48.0416 86.8202 48.0999C86.6702 48.3899 86.5302 48.6699 86.4102 48.9599C86.381 49.0157 86.3635 49.0769 86.3589 49.1398C86.3543 49.2027 86.3626 49.2658 86.3834 49.3253C86.4043 49.3848 86.4371 49.4394 86.4799 49.4857C86.5227 49.532 86.5745 49.569 86.6322 49.5944C86.6899 49.6198 86.7522 49.6331 86.8152 49.6334C86.8783 49.6338 86.9407 49.6211 86.9987 49.5963C87.0566 49.5715 87.1088 49.5351 87.1521 49.4892C87.1954 49.4434 87.2288 49.3891 87.2502 49.3299ZM104.75 56.8399C104.702 56.7997 104.646 56.7695 104.586 56.7512C104.526 56.733 104.463 56.7269 104.4 56.7334C104.338 56.74 104.277 56.7589 104.222 56.7892C104.167 56.8195 104.119 56.8605 104.08 56.9099C103.88 57.1699 103.68 57.4199 103.49 57.6899C103.433 57.7934 103.416 57.9144 103.442 58.0298C103.469 58.1451 103.537 58.2467 103.633 58.3149C103.73 58.3831 103.849 58.4131 103.966 58.3993C104.084 58.3854 104.192 58.3287 104.27 58.2399C104.45 57.9999 104.63 57.7499 104.83 57.4999C104.868 57.4513 104.896 57.3957 104.913 57.3362C104.93 57.2767 104.934 57.2146 104.927 57.1533C104.92 57.092 104.9 57.0328 104.87 56.979C104.839 56.9252 104.799 56.8779 104.75 56.8399ZM108.15 53.4999C108.106 53.4554 108.054 53.4201 107.997 53.396C107.939 53.3719 107.878 53.3595 107.815 53.3595C107.753 53.3595 107.691 53.3719 107.634 53.396C107.576 53.4201 107.524 53.4554 107.48 53.4999L106.75 54.1399C106.706 54.1836 106.67 54.2357 106.646 54.2933C106.622 54.3508 106.61 54.4125 106.61 54.4749C106.61 54.5372 106.622 54.5989 106.646 54.6565C106.67 54.714 106.706 54.7661 106.75 54.8099C106.794 54.8543 106.846 54.8896 106.904 54.9137C106.961 54.9378 107.023 54.9502 107.085 54.9502C107.148 54.9502 107.209 54.9378 107.267 54.9137C107.324 54.8896 107.376 54.8543 107.42 54.8099L108.13 54.1899C108.179 54.1473 108.219 54.095 108.246 54.0364C108.274 53.9778 108.289 53.914 108.291 53.8492C108.293 53.7844 108.281 53.7199 108.257 53.6598C108.233 53.5997 108.197 53.5452 108.15 53.4999ZM111.33 50.5599C111.07 50.7299 110.8 50.9099 110.54 51.0999C110.437 51.1715 110.366 51.2812 110.344 51.405C110.321 51.5288 110.349 51.6564 110.42 51.7599C110.492 51.8633 110.602 51.934 110.725 51.9566C110.849 51.9791 110.977 51.9515 111.08 51.8799L111.86 51.3499C111.922 51.3197 111.976 51.2767 112.019 51.2238C112.063 51.1709 112.095 51.1093 112.112 51.0432C112.13 50.9771 112.133 50.9079 112.122 50.8403C112.111 50.7728 112.085 50.7084 112.047 50.6516C112.009 50.5947 111.959 50.5466 111.901 50.5106C111.843 50.4746 111.778 50.4515 111.71 50.4428C111.642 50.4342 111.573 50.4401 111.507 50.4603C111.442 50.4805 111.381 50.5144 111.33 50.5599ZM115.46 48.0999L114.62 48.5599C114.558 48.5863 114.502 48.6256 114.456 48.6752C114.41 48.7247 114.375 48.7835 114.353 48.8475C114.332 48.9116 114.324 48.9795 114.33 49.0468C114.336 49.1141 114.357 49.1793 114.39 49.2381C114.424 49.297 114.469 49.3481 114.523 49.3882C114.578 49.4283 114.64 49.4564 114.706 49.4707C114.772 49.4851 114.841 49.4853 114.907 49.4713C114.973 49.4574 115.036 49.4296 115.09 49.3899C115.36 49.2299 115.64 49.0799 115.91 48.9399C115.966 48.9104 116.016 48.8702 116.056 48.8215C116.096 48.7729 116.127 48.7168 116.145 48.6564C116.164 48.596 116.17 48.5325 116.164 48.4696C116.158 48.4067 116.14 48.3456 116.11 48.2899C116.081 48.2338 116.041 48.1843 115.992 48.1442C115.943 48.1041 115.886 48.0743 115.826 48.0566C115.765 48.0389 115.701 48.0336 115.639 48.041C115.576 48.0484 115.515 48.0684 115.46 48.0999ZM119.3 47.2699L120.17 46.8899C120.28 46.8351 120.365 46.7403 120.407 46.625C120.449 46.5098 120.445 46.3827 120.397 46.2701C120.348 46.1574 120.258 46.0676 120.145 46.0192C120.032 45.9708 119.905 45.9675 119.79 46.0099L118.91 46.3999C118.809 46.4602 118.734 46.5554 118.699 46.6676C118.663 46.7797 118.67 46.901 118.718 47.0083C118.767 47.1155 118.852 47.2015 118.96 47.2497C119.067 47.2979 119.188 47.3051 119.3 47.2699ZM123 45.0799C123.06 45.1901 123.16 45.2728 123.28 45.3101C123.399 45.3475 123.529 45.3366 123.64 45.2799L124.49 44.8299C124.601 44.7686 124.684 44.6659 124.719 44.5441C124.755 44.4223 124.741 44.2913 124.68 44.1799C124.617 44.0706 124.514 43.9899 124.393 43.9545C124.272 43.9191 124.142 43.9318 124.03 43.9899L123.2 44.4399C123.09 44.4993 123.007 44.5996 122.97 44.7192C122.933 44.8387 122.943 44.9682 123 45.0799ZM127.25 41.9999C127.147 42.0742 127.077 42.1856 127.055 42.3106C127.033 42.4356 127.06 42.5644 127.13 42.6699C127.203 42.7721 127.312 42.8419 127.436 42.8643C127.559 42.8867 127.686 42.86 127.79 42.7899C128.06 42.6099 128.32 42.4199 128.58 42.2299C128.665 42.1497 128.718 42.0415 128.728 41.9253C128.739 41.8091 128.707 41.693 128.639 41.5987C128.57 41.5043 128.469 41.4382 128.356 41.4127C128.242 41.3871 128.123 41.4039 128.02 41.4599C127.77 41.6599 127.51 41.8399 127.25 41.9999ZM131.64 38.4699L130.95 39.1099C130.869 39.1978 130.824 39.3129 130.823 39.4325C130.823 39.5521 130.867 39.6676 130.947 39.7565C131.027 39.8453 131.137 39.9011 131.256 39.9128C131.375 39.9245 131.494 39.8914 131.59 39.8199L132.29 39.1599C132.336 39.1172 132.372 39.066 132.398 39.0092C132.423 38.9525 132.437 38.8912 132.439 38.829C132.441 38.7668 132.43 38.7048 132.408 38.6466C132.386 38.5884 132.353 38.5352 132.31 38.4899C132.268 38.4446 132.216 38.4081 132.16 38.3826C132.103 38.3571 132.042 38.343 131.979 38.3411C131.917 38.3392 131.855 38.3497 131.797 38.3718C131.739 38.3938 131.686 38.4272 131.64 38.4699ZM134.26 36.3999C134.308 36.4401 134.364 36.4702 134.424 36.4885C134.484 36.5068 134.548 36.5128 134.61 36.5063C134.672 36.4998 134.733 36.4808 134.788 36.4505C134.843 36.4202 134.891 36.3792 134.93 36.3299C135.14 36.0799 135.34 35.8299 135.54 35.5699C135.578 35.5207 135.605 35.4645 135.621 35.4047C135.637 35.3449 135.641 35.2825 135.632 35.2212C135.624 35.1598 135.604 35.1008 135.572 35.0474C135.541 34.9939 135.5 34.9472 135.45 34.9099C135.35 34.8348 135.224 34.8013 135.099 34.8162C134.975 34.8311 134.86 34.8932 134.78 34.9899C134.59 35.2399 134.4 35.4899 134.2 35.7299C134.12 35.8271 134.082 35.9518 134.093 36.0771C134.104 36.2024 134.164 36.3183 134.26 36.3999ZM137 32.5099C137.112 32.5705 137.243 32.5846 137.364 32.549C137.486 32.5134 137.589 32.431 137.65 32.3199C137.8 32.0399 137.95 31.7499 138.09 31.4599C138.119 31.4036 138.136 31.3421 138.141 31.2791C138.145 31.2161 138.137 31.1529 138.116 31.0931C138.096 31.0334 138.063 30.9784 138.021 30.9314C137.979 30.8845 137.927 30.8465 137.87 30.8199C137.815 30.7913 137.754 30.7743 137.692 30.7699C137.629 30.7656 137.567 30.774 137.508 30.7945C137.449 30.8151 137.395 30.8475 137.349 30.8897C137.303 30.9318 137.266 30.9829 137.24 31.0399L136.81 31.8699C136.78 31.9243 136.762 31.9841 136.755 32.0458C136.748 32.1075 136.754 32.17 136.772 32.2295C136.79 32.289 136.819 32.3444 136.858 32.3925C136.897 32.4406 136.946 32.4805 137 32.5099ZM138.87 28.1399C138.993 28.1674 139.122 28.1464 139.23 28.0812C139.338 28.016 139.417 27.9117 139.45 27.7899C139.52 27.4699 139.59 27.1499 139.65 26.7899C139.671 26.6656 139.643 26.538 139.572 26.4337C139.502 26.3294 139.393 26.2564 139.27 26.2299C139.145 26.2093 139.016 26.2385 138.911 26.3113C138.807 26.3842 138.735 26.4948 138.71 26.6199C138.66 26.9199 138.59 27.2199 138.52 27.5199C138.499 27.5835 138.491 27.6509 138.498 27.7177C138.504 27.7844 138.525 27.8491 138.558 27.9075C138.591 27.966 138.635 28.0168 138.689 28.0568C138.743 28.0968 138.805 28.1251 138.87 28.1399ZM138.9 22.9999C138.904 23.0625 138.92 23.1238 138.948 23.1801C138.976 23.2364 139.015 23.2865 139.062 23.3275C139.11 23.3685 139.165 23.3996 139.225 23.4189C139.285 23.4382 139.348 23.4453 139.41 23.4399C139.536 23.4296 139.652 23.3704 139.735 23.275C139.817 23.1796 139.859 23.0556 139.85 22.9299C139.85 22.5999 139.78 22.2699 139.74 21.9299C139.732 21.8678 139.711 21.8082 139.679 21.7543C139.647 21.7005 139.605 21.6535 139.554 21.6163C139.504 21.579 139.447 21.5522 139.386 21.5373C139.325 21.5225 139.262 21.52 139.2 21.5299C139.075 21.5497 138.963 21.6169 138.887 21.7175C138.81 21.8181 138.776 21.9444 138.79 22.0699C138.84 22.3699 138.87 22.6699 138.9 22.9999ZM137.76 18.5499C137.815 18.6654 137.912 18.7551 138.031 18.7999C138.151 18.8447 138.283 18.8411 138.4 18.7899C138.513 18.7357 138.601 18.6394 138.644 18.5217C138.686 18.404 138.682 18.2741 138.63 18.1599C138.49 17.8599 138.34 17.5599 138.18 17.2699C138.119 17.1598 138.017 17.0785 137.896 17.0438C137.775 17.0091 137.645 17.0239 137.535 17.0849C137.425 17.1459 137.344 17.2481 137.309 17.369C137.274 17.49 137.289 17.6198 137.35 17.7299C137.5 17.9999 137.63 18.2799 137.76 18.5499ZM135.16 14.7799C135.204 14.8245 135.255 14.8602 135.312 14.8849C135.37 14.9095 135.431 14.9227 135.493 14.9236C135.555 14.9246 135.617 14.9132 135.675 14.8903C135.733 14.8673 135.786 14.8332 135.83 14.7899C135.875 14.7465 135.911 14.6948 135.935 14.6377C135.96 14.5806 135.973 14.5191 135.974 14.4569C135.975 14.3947 135.964 14.3329 135.941 14.2751C135.918 14.2173 135.884 14.1645 135.84 14.1199C135.62 13.8899 135.39 13.6599 135.14 13.4399C135.094 13.3978 135.04 13.3653 134.982 13.344C134.923 13.3228 134.861 13.3133 134.799 13.3161C134.737 13.3189 134.676 13.3339 134.619 13.3603C134.563 13.3867 134.512 13.4239 134.47 13.4699C134.428 13.5158 134.396 13.5696 134.374 13.6282C134.353 13.6867 134.344 13.7489 134.346 13.8111C134.349 13.8733 134.364 13.9344 134.391 13.9908C134.417 14.0472 134.454 14.0978 134.5 14.1399L135.16 14.7799ZM130.74 11.3899C131.01 11.5499 131.28 11.7099 131.54 11.8799C131.593 11.9193 131.654 11.9473 131.718 11.9622C131.783 11.977 131.85 11.9784 131.915 11.9662C131.98 11.9541 132.041 11.9286 132.096 11.8914C132.151 11.8542 132.197 11.8062 132.233 11.7502C132.268 11.6942 132.291 11.6316 132.301 11.5662C132.311 11.5008 132.307 11.4341 132.29 11.3702C132.273 11.3063 132.243 11.2467 132.201 11.195C132.16 11.1433 132.109 11.1007 132.05 11.0699L131.22 10.5699C131.111 10.5075 130.982 10.4904 130.861 10.5222C130.739 10.554 130.635 10.6321 130.57 10.7399C130.508 10.8489 130.491 10.978 130.523 11.0996C130.554 11.2211 130.632 11.3253 130.74 11.3899ZM126.52 9.33986L127.39 9.70986C127.505 9.75223 127.632 9.74887 127.745 9.70048C127.858 9.65209 127.948 9.56233 127.997 9.44966C128.045 9.337 128.049 9.20997 128.007 9.0947C127.965 8.97942 127.88 8.88465 127.77 8.82986L126.88 8.45986C126.821 8.42535 126.755 8.40395 126.687 8.39713C126.618 8.3903 126.549 8.3982 126.484 8.4203C126.419 8.4424 126.36 8.47817 126.31 8.52522C126.26 8.57226 126.221 8.62948 126.195 8.693C126.169 8.75653 126.157 8.8249 126.159 8.89348C126.162 8.96207 126.179 9.02928 126.21 9.09059C126.241 9.1519 126.285 9.20587 126.338 9.24887C126.392 9.29188 126.454 9.3229 126.52 9.33986ZM122.06 7.80986L122.97 8.08986C123.091 8.1242 123.22 8.10994 123.33 8.05013C123.441 7.99032 123.523 7.88972 123.56 7.76986C123.58 7.71083 123.588 7.64834 123.583 7.5862C123.578 7.52407 123.561 7.46357 123.532 7.4084C123.503 7.35322 123.463 7.30451 123.414 7.26522C123.366 7.22594 123.31 7.1969 123.25 7.17986L122.33 6.89986C122.27 6.8815 122.208 6.87523 122.145 6.88143C122.083 6.88763 122.023 6.90617 121.968 6.93597C121.913 6.96576 121.865 7.00622 121.826 7.05497C121.786 7.10371 121.757 7.15977 121.74 7.21986C121.722 7.2796 121.716 7.34241 121.722 7.4046C121.728 7.46679 121.747 7.52712 121.776 7.58206C121.806 7.637 121.847 7.68545 121.895 7.72456C121.944 7.76368 122 7.79268 122.06 7.80986ZM117.47 6.65986L118.4 6.86986C118.523 6.89681 118.652 6.87415 118.759 6.80678C118.866 6.7394 118.942 6.63274 118.97 6.50986C118.985 6.44876 118.987 6.38531 118.977 6.32329C118.967 6.26127 118.944 6.20193 118.911 6.14879C118.877 6.09564 118.833 6.04977 118.782 6.01388C118.73 5.97799 118.672 5.95283 118.61 5.93986L117.67 5.72986C117.554 5.72095 117.439 5.75431 117.346 5.82375C117.253 5.8932 117.189 5.99401 117.164 6.10753C117.14 6.22105 117.157 6.33956 117.214 6.44112C117.27 6.54268 117.361 6.62039 117.47 6.65986Z" fill="black"/>
<path fill-rule="evenodd" clip-rule="evenodd" d="M163 64.6598C162.296 63.2588 161.239 62.066 159.932 61.1995C158.625 60.333 157.115 59.823 155.55 59.7198C152.17 59.5098 150.98 59.5498 141.93 59.5098V56.8998C141.93 56.8998 147.51 56.3198 148.41 56.2498C148.358 54.5936 148.191 52.943 147.91 51.3098C147.91 51.2498 147.59 51.1898 147.38 51.1898C147.72 51.1898 142.9 50.9098 137.38 50.8898C137.313 50.8819 137.244 50.8876 137.179 50.9065C137.114 50.9254 137.053 50.9571 137 50.9998C136.82 51.1898 136.84 50.5898 136.88 59.5098C130.959 59.3108 125.03 59.4844 119.13 60.0298C117.216 60.1436 115.421 61.0013 114.13 62.4198C112.251 64.617 111.086 67.3342 110.79 70.2098C110.32 73.1298 108.66 88.4598 108.96 90.2898C103.614 94.4834 99.314 99.8613 96.4002 106C95.3002 108.34 94.8702 110.45 95.4002 112.29C94.4525 111.843 93.4399 111.549 92.4002 111.42C92.4002 111.42 92.2902 111.13 92.2402 110.92C92.0002 109.92 93.8302 109.98 94.6702 110.67C94.7602 110.77 94.9102 110.67 94.8202 110.53C93.6302 108.8 90.7502 109.92 92.1902 111.41C90.9202 111.35 90.5602 112.07 91.0802 112.96C90.3302 113.3 90.5002 114.15 91.0802 114.78C92.0802 115.78 93.2202 115.78 93.0802 115.38C93.0663 115.335 93.036 115.296 92.9953 115.272C92.9547 115.248 92.9065 115.24 92.8602 115.25C92.2102 115.41 90.9202 114.08 91.2002 113.62C91.4802 113.16 95.2002 113.69 94.9402 116.34C94.7802 118.66 88.3702 117.1 87.5702 111.62C87.5702 111.5 87.5102 111.46 87.3202 111.27C87.1302 111.08 86.5502 110.49 85.8302 109.79C87.1453 108.325 88.6213 107.014 90.2302 105.88C90.5166 106.686 91.0437 107.384 91.7402 107.88C91.8442 107.929 91.9559 107.959 92.0702 107.97C93.0824 108.155 94.1134 108.215 95.1402 108.15C95.1639 108.154 95.188 108.153 95.2114 108.148C95.2347 108.142 95.2568 108.132 95.2763 108.118C95.2958 108.104 95.3124 108.087 95.325 108.066C95.3377 108.046 95.3463 108.023 95.3502 108C95.3542 107.976 95.3534 107.952 95.348 107.929C95.3426 107.905 95.3326 107.883 95.3187 107.864C95.3048 107.844 95.2872 107.828 95.2668 107.815C95.2465 107.802 95.2239 107.794 95.2002 107.79C94.2181 107.407 93.1888 107.158 92.1402 107.05C91.6108 106.594 91.1191 106.095 90.6702 105.56C91.1802 105.2 91.9802 104.56 91.5702 104.07C86.7989 98.4998 83.0725 92.114 80.5702 85.2198C80.9902 79.2198 80.5702 70.2198 77.8202 64.7198C78.7402 64.8698 80.3802 65.1098 81.1802 64.7198C81.3648 64.6342 81.5153 64.4891 81.6078 64.3078C81.7002 64.1266 81.7293 63.9195 81.6902 63.7198C83.1669 64.1649 84.7515 64.0907 86.1802 63.5098C91.4002 60.8098 96.3902 50.5098 97.5202 43.1698C98.0002 43.1198 98.5202 42.8998 98.2902 42.3098C98.1802 42.0398 97.6502 42.0798 97.7002 41.7598C97.7502 41.4398 99.0102 41.2598 98.4902 40.6498C98.2262 40.4638 97.9266 40.3344 97.6102 40.2698C97.0302 39.9398 97.5402 39.6098 97.6102 39.5898C97.6802 39.5698 97.9102 39.5198 98.0002 39.3498C98.0449 39.1964 98.0449 39.0333 98.0002 38.8798C97.9302 38.3398 97.0002 38.7198 96.7602 38.3998C96.2102 37.7598 98.1802 37.5498 97.3402 36.8998C96.8902 36.5498 95.8502 37.2198 95.5602 36.6998C95.2702 36.1798 96.7902 35.5898 95.8402 34.9198C95.1702 34.4598 94.2402 35.7798 93.8402 34.9898C93.6502 34.6398 94.2002 34.3698 94.3002 34.1198C94.3338 33.9967 94.3358 33.8672 94.3061 33.7431C94.2764 33.619 94.2159 33.5044 94.1302 33.4098C94.0302 33.2798 93.6802 33.3298 93.5502 33.4098C93.2202 33.5898 92.7002 34.2198 92.2602 33.8798C91.6002 33.3698 92.8002 33.0098 92.1902 32.4498C92.118 32.361 92.0298 32.2864 91.9302 32.2298C91.4902 32.0098 91.1602 32.2998 90.8102 32.4998C90.5402 32.6398 91.0702 32.5798 90.8102 32.4998C90.5602 32.4098 90.9002 32.1998 90.9502 32.0598C90.9757 31.9356 90.954 31.8063 90.8892 31.6972C90.8245 31.5881 90.7215 31.5071 90.6002 31.4698C90.0802 31.2898 89.8302 32.1798 89.2002 31.8098C88.9602 31.6698 89.2002 31.4498 89.2902 31.3198C89.334 31.2486 89.3615 31.1687 89.3709 31.0856C89.3803 31.0026 89.3714 30.9184 89.3447 30.8392C89.3179 30.76 89.2741 30.6877 89.2163 30.6273C89.1585 30.5669 89.0882 30.52 89.0102 30.4898C88.0102 30.2098 87.7102 31.5898 86.7602 31.1998C86.0502 30.8998 87.4102 29.8698 86.5002 29.6098C86.1002 29.4898 85.8902 29.6698 85.6202 29.9798C85.3502 30.2898 85.3202 30.6398 84.8602 30.6998C83.9402 30.8298 84.4802 29.9298 84.3602 29.6198C84.2402 29.3098 83.9802 29.2998 83.6902 29.3398C82.8502 29.4598 83.2402 30.5298 82.5902 30.6198C81.9402 30.7098 82.3202 29.7098 81.7402 29.8298C81.0102 29.9798 82.0602 30.8298 81.2802 30.9998C80.5002 31.1698 81.1202 29.8798 80.2802 30.0698C79.4402 30.2598 79.9102 31.2898 79.2802 31.4998C78.6502 31.7098 79.1202 30.8598 78.6102 30.9298C77.6102 31.0598 77.9602 31.9298 77.7102 32.0998C77.1802 32.3598 77.2802 31.3498 76.7102 31.4198C75.5702 31.5798 76.0502 32.5798 75.7102 33.2298C75.4702 33.6898 74.8902 32.8698 74.5802 33.2998C74.2702 33.7298 74.8002 34.0998 74.5802 34.5298C74.4602 34.7798 74.0402 34.2098 73.4902 34.7498C72.9402 35.2898 73.1302 35.8198 73.2102 36.3998C73.3202 37.2698 72.2102 36.4698 72.0402 36.9898C71.9102 37.3098 72.6802 37.9098 72.3902 38.1298C72.1002 38.3498 72.0202 37.9498 71.4902 38.2898C70.9602 38.6298 70.9502 39.0198 71.3302 39.4698C71.5002 39.6698 71.8502 39.7998 71.6502 40.1998C71.4502 40.5998 71.0002 40.0898 70.6502 40.5098C70.2102 41.1298 71.5502 40.9898 71.2502 41.5798C70.9502 42.1698 70.1902 42.1198 70.1902 42.1198C69.5902 42.9698 70.7802 43.3398 71.1902 43.7798C71.6002 44.2198 70.5802 44.4698 70.5602 44.8398C70.5602 45.6198 71.1602 45.5898 71.3302 45.7898C71.5002 45.9898 70.8602 46.0398 70.9802 46.5598C71.0511 46.741 71.1771 46.8954 71.3403 47.0012C71.5036 47.1071 71.6959 47.159 71.8902 47.1498C71.8164 47.2221 71.7614 47.3114 71.7302 47.4098L55.0602 42.6298C40.5002 38.3098 20.1102 47.6298 18.5802 61.1298C11.5802 66.5198 3.58022 79.4998 2.21022 86.2198C-0.519779 96.3998 -0.0597789 104.54 2.63022 111.72C5.63022 119.82 13.6302 138.51 13.6302 138.51C13.6302 138.51 0.250221 170 1.15022 181.18C1.15022 181.84 0.410221 188.62 0.400221 188.72C1.94022 188.94 9.10022 189.87 11.9002 189.98C13.4102 190.142 14.937 189.936 16.3502 189.38C17.5002 188.75 16.0902 186.5 15.7902 186.11C13.6102 183.25 10.8702 183.55 7.95022 183.67V183.49C10.7995 183.497 13.6438 183.252 16.4502 182.76C17.3902 182.39 35.0502 166.53 40.9602 149.38C42.9602 143.47 39.8302 120.26 40.5202 120.11C41.5202 119.9 45.7302 142.82 42.4302 150.17C41.8669 151.341 41.215 152.468 40.4802 153.54C40.4802 153.54 39.3202 154.81 38.0402 172.65C38.0402 172.75 36.4602 182.3 36.4402 182.4C36.4202 182.5 51.8002 185.88 52.6202 183.79C52.8185 182.919 52.7241 182.007 52.3517 181.195C51.9793 180.384 51.3496 179.717 50.5602 179.3C48.5602 177.73 46.7702 177.92 44.5002 177.84C44.6102 177.42 44.7802 176.84 44.9802 176.09C47.4563 176.122 49.9234 175.785 52.3002 175.09C55.0602 170.38 61.0702 155.73 61.3002 138.99C61.4802 126.36 53.0702 107.93 51.7802 105.18C56.1504 100.886 59.8095 95.9238 62.6202 90.4798C66.6202 102.34 75.2002 109.71 83.6202 111.69C83.6828 111.705 83.7477 111.708 83.8113 111.697C83.8749 111.687 83.9357 111.664 83.9902 111.63C84.3602 111.22 84.9902 110.45 85.4602 109.99C85.8102 110.39 86.5502 111.26 86.8802 111.67C87.4402 117.99 95.2502 120.02 95.7402 116.48C96.2563 116.041 96.632 115.46 96.8202 114.81C98.2577 116.137 100.014 117.07 101.919 117.517C103.824 117.964 105.812 117.91 107.69 117.36C110.67 116.491 113.378 114.877 115.56 112.67C117.69 110.67 127.42 98.2698 128.41 95.8998L139.86 95.2198V179.34C138.441 175.9 136.505 172.697 134.12 169.84C134.084 169.8 134.036 169.774 133.983 169.765C133.931 169.756 133.877 169.765 133.83 169.79C133.783 169.816 133.745 169.856 133.724 169.905C133.702 169.953 133.697 170.008 133.71 170.06C133.71 170.06 135.21 174.69 136.13 177.64C134.981 176.218 133.731 174.882 132.39 173.64C132.35 173.607 132.3 173.588 132.249 173.586C132.197 173.584 132.146 173.598 132.103 173.628C132.06 173.657 132.028 173.699 132.011 173.748C131.995 173.797 131.994 173.851 132.01 173.9C132.01 173.9 133.52 177.78 134.09 179.44C133.45 178.91 129.98 176.08 129.38 176.63C129.339 176.673 129.315 176.73 129.315 176.79C129.315 176.85 129.339 176.907 129.38 176.95C130.35 177.94 131.208 179.033 131.94 180.21C133.54 182.89 132.69 183.61 133.27 183.6C133.335 183.597 133.396 183.57 133.441 183.523C133.485 183.477 133.51 183.414 133.51 183.35C133.41 182.141 133.012 180.976 132.35 179.96C130.93 177.58 129.69 176.9 130.89 177.64C132.121 178.464 133.307 179.356 134.44 180.31C134.47 180.327 134.503 180.337 134.537 180.34C134.571 180.342 134.605 180.338 134.637 180.327C134.67 180.315 134.699 180.297 134.724 180.274C134.748 180.25 134.768 180.222 134.78 180.19C134.814 180.076 134.814 179.954 134.78 179.84C134.56 179.08 133.48 176.25 132.9 174.72C137.51 179.19 136.42 179.99 137.06 180.18C137.095 180.189 137.13 180.19 137.165 180.184C137.2 180.178 137.233 180.165 137.263 180.145C137.292 180.125 137.317 180.099 137.335 180.069C137.354 180.039 137.366 180.005 137.37 179.97C137.37 179.68 135.14 172.72 134.64 171.18C136.64 173.84 139.11 177.75 139.83 180.99V184.85H144V182.7C145.799 179.032 148.934 176.191 152.76 174.76C152.66 174.87 147.31 180.34 147.86 182.36C147.875 182.426 147.914 182.483 147.97 182.52C148.026 182.558 148.094 182.572 148.16 182.56C148.84 182.42 150.55 179.01 157.16 177.19C156.3 177.93 154.84 179.19 154.45 179.44C153.3 180.28 151.38 182.56 151.35 183.28C151.346 183.323 151.355 183.366 151.377 183.404C151.398 183.441 151.431 183.471 151.47 183.49C151.62 183.58 151.71 183.49 151.86 183.39C152.75 182.76 156.13 180.39 157.22 180.54C156.74 181.25 155.43 182.73 155.45 184.04C155.461 184.094 155.491 184.142 155.534 184.177C155.577 184.212 155.63 184.231 155.685 184.231C155.74 184.231 155.794 184.212 155.837 184.177C155.88 184.142 155.909 184.094 155.92 184.04C155.92 182.65 157.74 180.9 157.77 180.49C157.8 180.08 157.38 180.08 157.09 180.08C155.85 180.08 153.21 181.89 152.2 182.59C153.78 180.19 155.41 179.47 158.04 177.06C158.31 176.81 158.15 176.6 157.98 176.58C157.54 176.53 153.14 177.29 148.47 181.71C149.96 177.32 153.31 175.41 153.62 174.47C153.68 174.28 153.54 174.11 153.17 174.16C149.45 174.63 146.31 178.07 144.38 181.3V94.9998C145.28 94.9998 164.07 93.5198 164.07 93.5198C164.213 93.5104 164.348 93.4495 164.449 93.3483C164.55 93.2471 164.611 93.1126 164.62 92.9698L165.62 77.8298C165.62 73.3698 165.16 68.4898 163 64.6598ZM8.73022 184.52L8.00022 188.08L1.23022 187.35C1.55022 185.35 1.66022 184.35 1.77022 182.87C3.53717 183.24 5.33525 183.44 7.14022 183.47C7.02022 183.92 6.90022 184.17 7.14022 184.39C7.38022 184.61 7.40022 184.52 8.73022 184.52ZM80.2002 62.3298C79.9238 62.345 79.6467 62.345 79.3702 62.3298C79.2702 62.3298 75.9902 61.9298 75.8902 61.9298C75.3902 61.9298 75.1702 62.6998 75.9602 62.8398C77.9602 63.1898 79.7202 63.1998 79.9602 63.2698C81.2802 63.6198 81.3702 64.2698 79.2802 64.1998C77.1902 64.1298 74.1502 63.3398 73.7702 63.5198C72.8963 63.9037 72.0623 64.3726 71.2802 64.9198C70.8986 63.146 70.1528 61.4706 69.0902 59.9998C69.6802 59.7998 71.7902 59.4398 71.7902 59.4398C71.8422 59.434 71.8909 59.4113 71.9288 59.3751C71.9668 59.339 71.9918 59.2915 72.0002 59.2398C72.1519 58.3403 72.3966 57.4589 72.7302 56.6098C72.9002 56.2298 73.2602 55.5098 73.7302 55.5098C73.8702 55.5098 73.8402 55.9598 73.8302 56.0998C73.6234 57.1342 73.3461 58.1533 73.0002 59.1498C72.9879 59.2068 72.9888 59.2659 73.003 59.3225C73.0171 59.379 73.0441 59.4316 73.0818 59.476C73.1195 59.5205 73.1669 59.5557 73.2204 59.5789C73.2739 59.6021 73.332 59.6127 73.3902 59.6098C75.0503 59.4218 76.7195 59.325 78.3902 59.3198C78.9602 59.3198 80.8602 59.4398 80.9802 59.9998C81.0402 60.2698 80.9202 60.3098 80.6402 60.3698C79.0949 60.496 77.541 60.4726 76.0002 60.2998C75.8977 60.2849 75.793 60.3042 75.7026 60.3548C75.6122 60.4055 75.541 60.4846 75.5002 60.5798C75.5002 60.5798 75.4302 61.1198 75.9002 61.1798C77.9902 61.4398 79.0802 61.1798 80.2402 61.5298C80.5102 61.6098 81.1002 61.8198 81.0802 62.0598C81.0602 62.2998 80.4302 62.3098 80.2002 62.3298ZM86.6702 58.7098C86.6623 58.7157 86.6534 58.72 86.6438 58.7225C86.6343 58.7249 86.6244 58.7255 86.6146 58.7241C86.6049 58.7227 86.5955 58.7194 86.587 58.7144C86.5785 58.7094 86.5711 58.7027 86.5652 58.6948C86.5593 58.687 86.555 58.678 86.5526 58.6685C86.5501 58.6589 86.5496 58.649 86.551 58.6392C86.5524 58.6295 86.5557 58.6201 86.5607 58.6116C86.5657 58.6032 86.5723 58.5958 86.5802 58.5898C86.7114 58.4717 86.8229 58.3333 86.9102 58.1798C87.4402 57.1798 84.8202 57.2798 83.7102 57.2798C83.6949 57.2742 83.6817 57.2639 83.6724 57.2505C83.6631 57.2371 83.6581 57.2212 83.6581 57.2048C83.6581 57.1885 83.6631 57.1726 83.6724 57.1592C83.6817 57.1458 83.6949 57.1355 83.7102 57.1298C87.2402 56.4598 88.0602 57.8598 86.6702 58.7098ZM71.7302 47.7098C71.7656 47.7652 71.8144 47.8108 71.8721 47.8422C71.9298 47.8737 71.9945 47.8901 72.0602 47.8898C72.6102 47.8898 72.5302 48.2198 72.5402 48.2798C72.6302 48.5798 72.3002 48.7998 72.6102 49.0598C72.9202 49.3198 73.2902 48.9198 73.6102 49.0598C73.6702 49.0598 73.7802 49.6598 74.0002 49.7198C74.2202 49.7798 76.5402 50.9198 75.6502 49.5098C73.2902 45.8098 77.3202 43.7698 79.4302 48.0698C79.6102 48.4098 81.1102 39.2698 81.1102 39.2698C92.1802 37.7898 96.4902 41.5798 97.0402 42.6898C96.6301 44.6972 96.0651 46.6698 95.3502 48.5898C95.0849 48.3663 94.7732 48.2046 94.4376 48.1164C94.1021 48.0282 93.7512 48.0157 93.4102 48.0798C93.0572 48.1468 92.7187 48.2754 92.4102 48.4598C92.3638 48.4731 92.3246 48.5043 92.3011 48.5465C92.2777 48.5886 92.272 48.6384 92.2852 48.6848C92.2985 48.7313 92.3296 48.7705 92.3718 48.7939C92.414 48.8174 92.4638 48.8231 92.5102 48.8098C92.8202 48.8098 93.3402 48.8698 93.4402 48.8798C94.0602 48.8798 94.8302 49.0198 94.9602 49.6198C93.6732 53.1378 91.8408 56.4314 89.5302 59.3798C89.6002 59.0798 89.6602 58.7698 89.7102 58.4598C89.8902 57.3498 89.5302 55.7398 87.3302 54.6898C88.6602 55.1598 89.4602 55.4398 90.1702 54.3898C91.2702 52.7598 91.9902 48.3898 92.0202 48.2298C92.0281 48.2075 92.0315 48.1839 92.0302 48.1602C92.029 48.1366 92.0231 48.1134 92.0129 48.0921C92.0026 48.0707 91.9883 48.0516 91.9707 48.0357C91.9531 48.0199 91.9325 48.0077 91.9102 47.9998C91.8879 47.992 91.8642 47.9886 91.8406 47.9898C91.817 47.9911 91.7938 47.997 91.7724 48.0072C91.7511 48.0174 91.7319 48.0317 91.7161 48.0494C91.7003 48.067 91.6881 48.0875 91.6802 48.1098C90.6202 50.3298 90.1302 52.7698 89.4202 53.8898C89.1802 54.2698 89.0502 54.2898 88.4202 54.1898C86.3302 53.8898 86.1702 53.8098 86.1202 54.0498C86.1214 54.129 86.1537 54.2045 86.2102 54.2598L86.0302 54.1998C80.5402 52.6498 76.5602 57.0798 76.6602 58.5298C75.5002 58.5998 74.4202 58.7298 73.8102 58.7998C74.2002 57.4598 75.0402 54.7998 73.6302 54.8698C72.2202 54.9398 71.7202 57.6598 71.5302 58.9998C70.639 59.1954 69.7633 59.4561 68.9102 59.7798C68.4002 58.9998 68.5102 59.0498 68.0002 59.0798C66.5836 56.768 65.9132 54.076 66.0802 51.3698C66.2493 49.7672 66.8817 48.2487 67.9002 46.9998L71.7302 47.7098ZM67.5202 46.7898C66.6997 47.5868 66.0715 48.5603 65.6834 49.6363C65.2953 50.7123 65.1574 51.8626 65.2802 52.9998C65.3908 55.1915 66.1924 57.2919 67.5702 58.9998H66.7502C64.5402 57.3798 63.7502 50.0898 66.6602 46.4598L67.5202 46.7898ZM54.8902 43.2198L66.2902 46.4798C62.7202 50.0098 63.5302 57.0798 66.2002 59.1598C60.5902 59.4098 56.4402 59.4898 51.7502 60.5298C55.4302 58.2498 56.3102 53.8698 55.9602 49.5298C55.9602 49.4821 55.9413 49.4363 55.9075 49.4026C55.8737 49.3688 55.828 49.3498 55.7802 49.3498C55.7325 49.3498 55.6867 49.3688 55.6529 49.4026C55.6192 49.4363 55.6002 49.4821 55.6002 49.5298C55.3102 53.9298 54.4602 57.7598 51.0002 60.3098C49.8502 61.1598 50.4202 60.7598 47.0702 61.7898C47.0238 61.8044 46.9851 61.8369 46.9626 61.88C46.9401 61.9231 46.9356 61.9734 46.9502 62.0198C46.9648 62.0662 46.9972 62.105 47.0404 62.1275C47.0835 62.15 47.1338 62.1544 47.1802 62.1398C54.8302 59.9098 58.1802 60.0498 68.1302 59.7098C69.9302 62.5098 70.5602 63.5398 71.0002 67.5298C69.2102 69.4598 62.9302 73.5298 59.6702 75.3398C48.3202 81.5798 34.9902 84.8298 25.8502 75.7698C6.33022 56.4598 35.6802 37.7398 54.8902 43.2198ZM69.3402 69.9298C68.8202 71.3398 65.6802 78.6798 64.4502 80.4298C58.7602 88.5198 57.1102 88.9998 57.0002 89.1198C56.0181 89.1931 55.035 88.9923 54.1602 88.5398C56.8302 84.9998 61.0002 81.9998 64.6102 73.3198C66.4102 72.1498 68.1102 70.9098 69.3402 69.9298ZM45.0802 178.74L44.0802 182.27L37.5402 181.12C37.9787 179.209 38.3125 177.277 38.5402 175.33C40.3914 175.723 42.2704 175.97 44.1602 176.07C43.4502 178.25 43.3802 178.26 43.5502 178.5C43.7202 178.74 44.0002 178.65 45.0802 178.74ZM83.6702 110.8C81.0006 110.078 78.4624 108.937 76.1502 107.42C69.9131 103.29 65.2517 97.1774 62.9202 90.0698C64.8028 86.3849 66.3717 82.5481 67.6102 78.5998C67.6288 78.5441 67.6245 78.4834 67.5982 78.4308C67.572 78.3783 67.5259 78.3384 67.4702 78.3198C67.4145 78.3013 67.3537 78.3056 67.3012 78.3318C67.2487 78.3581 67.2088 78.4041 67.1902 78.4598C63.4393 88.5009 57.8354 97.7479 50.6702 105.72C41.1702 113.01 14.4302 106.8 2.53022 86.7198C3.83022 81.4498 12.1202 67.7198 18.5302 61.7198C18.2002 66.3198 20.1002 71.3598 25.2102 76.4198C35.7202 86.8098 51.5702 81.7298 64.0002 73.6998C60.1702 81.6998 55.9102 84.6198 53.1502 88.3898C53.1169 88.433 53.0925 88.4823 53.0784 88.535C53.0644 88.5877 53.061 88.6426 53.0684 88.6966C53.0759 88.7506 53.094 88.8026 53.1218 88.8495C53.1496 88.8965 53.1864 88.9373 53.2302 88.9698C54.2024 89.6541 55.3865 89.9697 56.5702 89.8598C56.9945 89.7716 57.3941 89.5906 57.7402 89.3298C60.0381 87.4538 62.0288 85.2304 63.6402 82.7398C66.3322 78.6585 68.411 74.2045 69.8102 69.5198C70.4665 69.0161 71.0787 68.4575 71.6402 67.8498C71.6919 67.7737 71.7132 67.681 71.7002 67.5898C71.6002 66.7098 71.4902 65.9698 71.3602 65.3098C72.2058 64.807 73.0883 64.3691 74.0002 63.9998C74.4802 63.9998 76.0002 64.3998 77.3702 64.6398C77.2802 64.4198 80.9502 71.3098 79.7502 85.2298C79.7502 85.7298 83.4102 96.0798 90.6502 104.4C88.0364 106.197 85.6869 108.351 83.6702 110.8ZM137.81 51.8698C139.55 51.6298 147.16 51.6398 147.34 51.6498C147.45 52.7498 147.77 55.6998 147.77 55.6998L141.03 56.2498V70.0598C140.477 69.8045 139.87 69.6858 139.261 69.7137C138.652 69.7415 138.058 69.9151 137.53 70.2198C137.73 61.9998 137.82 52.1698 137.81 51.8698ZM137.16 73.3598C137.225 72.6025 137.559 71.8932 138.1 71.3598C138.132 71.331 138.173 71.315 138.215 71.315C138.258 71.315 138.299 71.331 138.33 71.3598C138.059 71.9708 137.838 72.6029 137.67 73.2498C137.67 73.7898 138.03 75.8698 137.54 75.0698C137.2 74.5693 137.064 73.9575 137.16 73.3598ZM118.91 84.3598L119.74 84.4298C119.84 84.4515 119.928 84.5086 119.989 84.5907C120.049 84.6727 120.078 84.7739 120.07 84.8756C120.061 84.9772 120.016 85.0722 119.942 85.1429C119.869 85.2136 119.772 85.2552 119.67 85.2598L118.83 85.1898C118.737 85.1617 118.657 85.1022 118.603 85.0215C118.549 84.9407 118.524 84.8437 118.534 84.747C118.543 84.6503 118.586 84.5598 118.654 84.491C118.723 84.4223 118.814 84.3794 118.91 84.3698V84.3598ZM112.13 69.2998C113.21 63.7198 118.6 62.1698 117.99 62.6198C114.48 65.2698 113.85 66.5698 112.86 69.6198C112.44 70.8998 111.78 78.8198 111.36 78.8198C111.1 78.8298 111.46 72.7998 112.13 69.2998ZM115.51 84.7298L114.68 84.5698C114.627 84.5587 114.577 84.5372 114.532 84.5065C114.487 84.4758 114.448 84.4366 114.419 84.3911C114.389 84.3456 114.369 84.2947 114.359 84.2413C114.348 84.1879 114.349 84.133 114.36 84.0798C114.371 84.0267 114.393 83.9762 114.424 83.9313C114.454 83.8865 114.493 83.8481 114.539 83.8184C114.584 83.7886 114.635 83.7682 114.689 83.7581C114.742 83.7481 114.797 83.7487 114.85 83.7598L115.66 83.9198C115.768 83.9397 115.863 84.0015 115.925 84.0915C115.987 84.1815 116.01 84.2924 115.99 84.3998C115.97 84.5073 115.909 84.6024 115.819 84.6643C115.729 84.7261 115.618 84.7497 115.51 84.7298ZM110.94 82.5998L111.7 82.8898C111.804 82.927 111.888 83.0037 111.935 83.1031C111.982 83.2025 111.987 83.3164 111.95 83.4198C111.913 83.5233 111.836 83.6077 111.737 83.6546C111.638 83.7015 111.524 83.707 111.42 83.6698L110.63 83.3798C110.531 83.3358 110.453 83.2551 110.412 83.1546C110.371 83.0541 110.37 82.9417 110.41 82.8408C110.45 82.74 110.528 82.6586 110.627 82.6136C110.726 82.5687 110.838 82.5638 110.94 82.5998ZM95.8602 116.17C95.8708 115.584 95.7161 115.006 95.4136 114.504C95.1112 114.002 94.6733 113.595 94.1502 113.33C93.2746 112.831 92.2512 112.658 91.2602 112.84C91.178 112.667 91.1305 112.481 91.1202 112.29C91.1202 111.91 91.3902 111.81 91.7802 111.8C93.1352 111.903 94.4503 112.306 95.6302 112.98C95.8566 113.519 96.1671 114.018 96.5502 114.46C96.5153 115.09 96.2727 115.692 95.8602 116.17ZM115 112C110.45 116.26 104.57 118.49 99.2202 115.34C95.5702 113.2 95.4802 110.13 97.2202 106.34C100.11 99.9698 105.08 93.6798 109.07 90.5598C109.13 90.5598 128.2 95.5598 128.2 95.5598C126.84 98.3998 116.63 110.52 115 112ZM123 84.5598H123.82C123.919 84.5753 124.009 84.6255 124.075 84.7017C124.14 84.7778 124.176 84.8746 124.176 84.9748C124.176 85.075 124.14 85.1719 124.075 85.248C124.009 85.3241 123.919 85.3744 123.82 85.3898H123C122.915 85.3627 122.841 85.3093 122.789 85.2374C122.737 85.1656 122.708 85.0788 122.708 84.9898C122.708 84.9008 122.737 84.8141 122.789 84.7422C122.841 84.6703 122.915 84.617 123 84.5898V84.5598ZM128 85.2098L127.17 85.2798C127.069 85.2733 126.973 85.2303 126.901 85.1588C126.829 85.0873 126.786 84.9922 126.778 84.891C126.771 84.7898 126.801 84.6893 126.862 84.6082C126.923 84.5271 127.011 84.4709 127.11 84.4498L127.93 84.3798C128.044 84.3706 128.157 84.407 128.245 84.481C128.332 84.5551 128.386 84.6608 128.395 84.7748C128.405 84.8889 128.368 85.0019 128.294 85.0891C128.22 85.1764 128.114 85.2306 128 85.2398V85.2098ZM164.39 77.7098L163.46 92.3298C161.85 92.4498 128.46 95.4298 128.46 95.4298C128.57 94.7498 130.31 62.8598 121.88 60.3498C124.17 60.3498 130.69 60.2298 136.8 59.8598C136.8 63.2998 137.04 70.3898 137.04 70.4898C136.431 70.9734 135.986 71.6331 135.765 72.379C135.544 73.125 135.559 73.9208 135.808 74.6579C136.056 75.3951 136.526 76.0376 137.153 76.4979C137.78 76.9583 138.534 77.2139 139.311 77.2301C140.089 77.2462 140.853 77.022 141.498 76.5881C142.144 76.1542 142.64 75.5316 142.919 74.8054C143.198 74.0792 143.245 73.2847 143.056 72.5303C142.867 71.7758 142.449 71.0982 141.86 70.5898V59.9998C143.5 60.0598 152.23 60.3898 155.41 60.6798C156.808 60.7963 158.151 61.2755 159.307 62.0699C160.462 62.8644 161.391 63.9467 162 65.2098C164.81 70.3098 164.43 77.7398 164.43 77.7398L164.39 77.7098Z" fill="black"/>
</svg>
