<svg width="184" height="190" viewBox="0 0 184 190" fill="none" xmlns="http://www.w3.org/2000/svg">
<path d="M7.23817 54.8117C2.28517 47.1777 -0.247833 37.8757 1.52917 28.4477C2.37277 23.951 4.09587 19.6651 6.59947 15.8358C9.10317 12.0065 12.3382 8.70921 16.119 6.13291C19.8998 3.55658 24.152 1.75202 28.6317 0.82269C33.1115 -0.10664 37.7306 -0.14244 42.2242 0.71733C46.7178 1.57711 50.9975 3.31555 54.8178 5.83291C58.638 8.35031 61.9238 11.5971 64.4865 15.3872C67.0492 19.1772 68.8385 23.4359 69.7517 27.9189C70.6649 32.402 70.6841 37.0212 69.8082 41.5117C67.5472 53.5747 60.9892 61.7677 48.1892 67.5637C42.0002 70.3677 18.7252 72.5147 7.23817 54.8117ZM17.8882 29.9697C18.7152 32.6704 20.2154 35.1165 22.2478 37.078C24.2801 39.0395 26.7779 40.452 29.5063 41.1826C32.2346 41.9133 35.104 41.9382 37.8446 41.2549C40.5853 40.5716 43.1072 39.2027 45.1732 37.2767C56.9942 26.2507 47.4732 6.49971 31.3342 8.75171C28.9784 9.10591 26.7263 9.96241 24.7305 11.2631C22.7347 12.5638 21.0418 14.2784 19.7667 16.2907C18.4915 18.3029 17.6638 20.5658 17.3397 22.9259C17.0156 25.286 17.2027 27.6882 17.8882 29.9697ZM23.3602 65.6557C23.2772 65.9387 23.5312 65.9987 23.7942 66.0857C40.6012 71.6557 55.9472 65.4457 63.9252 52.8147C64.1322 52.4887 64.1482 52.4077 63.8492 52.1667C53.2902 41.8637 27.0072 48.9557 23.3602 65.6557Z" fill="black"/>
<path d="M38.8792 18.3487C38.8592 22.4047 33.8462 24.1487 33.6392 27.5957C33.5462 29.1337 35.3982 30.1577 34.2462 31.0957C33.3192 31.8477 32.1922 29.8957 31.8772 28.1327C31.8585 27.5539 31.9058 26.9748 32.0182 26.4067C32.7292 22.9377 37.3012 21.3167 36.9072 18.0467C36.5132 14.7767 32.8692 15.3577 30.2672 17.9207C29.3072 18.8657 29.5212 19.5617 29.2372 20.1007C28.8622 20.8087 27.9042 20.3277 27.8222 19.5367C27.4562 16.0147 34.5622 11.0437 38.1092 15.8947C38.629 16.6057 38.8997 17.4683 38.8792 18.3487Z" fill="black"/>
<path d="M35.0495 36.0548C34.867 35.9517 34.7109 35.8076 34.5937 35.6338C34.4765 35.46 34.4013 35.2613 34.374 35.0535C34.3468 34.8456 34.3682 34.6343 34.4367 34.4362C34.5051 34.238 34.6187 34.0585 34.7685 33.9118C34.8978 33.782 35.0545 33.6828 35.2272 33.6214C35.3999 33.5601 35.5841 33.5382 35.7663 33.5574C35.9486 33.5766 36.1242 33.6364 36.2803 33.7323C36.4364 33.8282 36.5691 33.9579 36.6685 34.1118C37.2415 35.0998 36.2255 36.6528 35.0495 36.0548Z" fill="black"/>
<path d="M12.5422 174.146C26.7262 170.262 61.4052 165.983 76.0092 164.257C111.079 160.112 147.595 156.642 182.609 155.021C182.715 155.02 182.818 155.06 182.896 155.133C182.974 155.205 183.02 155.305 183.026 155.411C183.032 155.518 182.996 155.622 182.927 155.703C182.858 155.784 182.76 155.835 182.654 155.845C139.047 158.745 38.4082 169.386 12.9332 175.831C12.4072 175.963 12.0232 174.288 12.5422 174.146Z" fill="black"/>
<path d="M134.5 109.85C134.279 109.35 135.278 109.914 135.648 108.875C136.529 106.397 136.54 105.62 135.394 104.762C134.03 103.882 132.561 103.176 131.021 102.662C130.636 102.544 131.468 102.162 132.414 101.01C132.654 100.719 132.579 100.831 134.865 101.972C137.654 103.365 137.828 103.211 138.165 104.107C138.603 105.142 139.41 105.977 140.43 106.449C142.499 107.504 144.511 108.508 146.162 106.754C146.368 106.535 146.354 106.56 147.508 107.169C152.791 109.956 152.646 109.412 152.771 109.996C152.916 110.615 153.205 111.191 153.614 111.677C154.023 112.164 154.54 112.547 155.125 112.796C156.82 113.705 157.675 114.344 159.389 113.758C164.389 112.048 167.358 104.984 165.078 102.736C163.125 100.812 162.065 99.4839 159.366 100.077C158.948 100.169 159.283 100.172 154.014 96.4839C153.467 96.1009 153.459 96.0049 153.544 95.6929C153.63 95.3699 153.638 95.0309 153.567 94.7039C153.496 94.3771 153.348 94.072 153.135 93.814C150.194 89.929 147.535 90.069 146.585 90.128C146.494 90.1385 146.401 90.1279 146.314 90.0968C146.227 90.0658 146.149 90.0152 146.085 89.949C141.785 84.996 111.463 63.939 104.097 58.975C103.365 58.481 103.823 58.314 103.629 57.632C102.929 55.165 99.1853 51.818 96.9293 50.949C88.0053 47.512 77.1333 59 78.0713 68.456C78.5873 73.656 81.2313 75.62 85.9943 77.508C86.8378 77.8355 87.7498 77.9468 88.6473 77.832C89.5851 77.571 90.4855 77.1906 91.3263 76.7C92.2093 76.115 91.7423 77.605 119.626 93.728C120.072 93.986 119.888 93.964 119.872 94.47C119.788 96.4439 120.224 98.4039 121.137 100.156C121.348 100.556 121.037 100.356 119.727 100.317C116.27 100.207 115.967 101.185 115.955 104.589C115.955 105.3 116.365 105.62 117.076 106.018C118.118 106.603 118.158 106.631 118.098 106.836C117.986 107.218 89.6703 186.914 89.6263 188.161C89.5933 189.109 90.5973 189.831 91.5263 189.998C91.7413 190.037 92.6023 187.909 94.1463 184.027C97.7913 174.864 107.131 152.49 108.798 148.242C122.844 112.442 120.815 117.298 122.822 112.363C123.111 111.653 123.103 112.252 123.27 115.052C123.349 116.371 127.914 181.376 128.178 184.475C128.416 187.252 128.531 187.246 128.911 187.275C129.335 187.382 129.779 187.384 130.204 187.282C130.63 187.18 131.024 186.976 131.354 186.689C131.874 186.059 131.704 185.836 131.472 179.289C131.34 175.572 129.145 114.35 129.163 114.348C129.163 111.748 152.339 169.47 160.125 186.8C160.441 187.5 160.867 187.168 161.961 186.631C162.358 186.355 162.644 185.947 162.767 185.479C162.89 185.011 162.843 184.515 162.634 184.079C159.423 175.445 134.5 109.85 134.5 109.85ZM164.656 103.35C165.633 104.401 165.334 107.191 163.456 109.813C162.136 111.655 159.704 113.847 157.635 113.03C156.435 112.557 155.951 111.23 156.741 108.73C157.876 105.129 162.661 101.2 164.655 103.349L164.656 103.35ZM160.907 100.75C161.598 100.847 162.237 101.175 162.718 101.681C162.805 101.759 163.089 102.049 162.559 102.051C159.569 102.4 155.764 106.884 155.559 110.421C155.48 111.751 155.759 111.946 155.354 111.803C152.543 110.818 153.332 106.77 155.581 103.843C156.345 102.868 157.266 102.027 158.307 101.355C159.086 100.88 159.997 100.668 160.906 100.75H160.907ZM158.107 100.263C158.672 100.63 157.576 100.284 155.46 102.663C151.43 107.19 153.535 109.326 152.06 108.68C151.451 108.413 150.288 107.751 147.742 106.429C143.642 104.3 143.683 104.322 143.742 103.863C144.083 102.022 144.84 100.283 145.955 98.7789C146.91 97.3939 148.119 96.2019 149.517 95.2669C149.903 94.998 150.135 94.806 150.632 95.1509C151.377 95.6719 153.179 97.0639 158.1 100.263H158.107ZM149.655 91.572C151.206 92.602 152.575 94.072 151.978 93.794C150.403 93.06 148.52 94.713 147.103 96.0339C145.087 97.9099 143.638 100.314 142.92 102.972C142.744 103.51 142.677 104.078 142.722 104.642C142.767 105.206 142.923 105.756 143.182 106.259C143.292 106.43 143.544 106.859 142.982 106.688C141.8 106.338 140.697 105.764 139.732 104.997C138.759 104.188 138.548 102.46 138.563 101.239C138.634 95.1589 145.763 88.99 149.65 91.572H149.655ZM87.6383 76.633C87.5253 76.798 87.3263 76.768 87.1383 76.697C83.8473 75.455 79.8523 73.918 79.2383 69.115C78.3383 62.051 83.4033 54.303 90.5383 52.015C92.4603 51.2729 94.5813 51.2196 96.5383 51.864C98.5263 52.8558 100.278 54.2628 101.675 55.99C100.838 55.6703 99.9333 55.5671 99.0453 55.69C91.3373 56.622 82.7203 71.798 87.2843 76.221C87.4443 76.376 87.6813 76.569 87.6383 76.633ZM87.5243 72.681C87.4127 72.6337 87.3221 72.5475 87.2693 72.4384C87.2165 72.3294 87.2051 72.2048 87.2373 72.088C88.8443 62.674 96.7063 56.782 98.7533 56.856C99.1243 56.831 99.0953 56.8 102.219 58.987C114.878 67.846 132.992 79.962 145.382 90.256C145.855 90.649 142.598 90.694 139.504 95.2759C136.66 99.4879 138.084 102.701 137.441 102.362C112.979 89.488 89.9533 73.931 87.5243 72.681ZM117.474 101.381C118.074 100.733 121.11 101.281 121.474 101.321C121.639 101.329 121.8 101.375 121.944 101.454C122.089 101.534 122.213 101.646 122.308 101.781C123.166 102.816 124.347 103.533 125.661 103.816C126.975 104.099 128.346 103.932 129.554 103.342C129.755 103.203 130.001 103.143 130.243 103.175C131.665 103.612 133.032 104.209 134.319 104.955C138.325 107.469 127.588 106.604 120.212 103.563C119.442 103.242 116.905 101.989 117.474 101.378V101.381ZM132.541 108.855C123.993 108.882 116.727 105.564 116.774 104.631C116.841 103.305 116.812 102.394 117.214 102.768C120.167 105.512 131.569 107.812 135.058 107.059C135.242 107.019 135.278 107.077 135.258 107.21C135.181 107.647 135.073 108.078 134.936 108.5C134.683 108.974 134.168 108.847 132.541 108.852V108.855Z" fill="black"/>
<path d="M158.048 111.173C158.672 112.673 161.306 111.167 162.741 108.792C163.394 107.712 164.036 106.542 163.827 105.464C163.577 104.164 162.085 104.31 161.11 105.043C159.311 106.394 157.435 109.261 158.048 111.173Z" fill="black"/>
<path d="M38.1876 107.617C39.2556 107.617 39.2086 107.677 39.1876 107.317C39.1876 107.317 39.0206 105.645 38.8696 103.594C38.8226 102.956 40.1936 102.335 40.3276 106.107C40.3876 107.807 40.4796 107.707 40.7756 107.714C44.5576 107.794 44.6066 107.606 44.7416 107.93C44.8646 108.23 43.2276 108.689 42.9126 108.748C40.6216 109.174 40.6126 108.748 40.6126 109.384C40.6406 113.627 40.6286 112.774 40.7356 113.646C40.7566 113.813 40.5736 113.809 40.5086 113.759C39.8396 113.246 39.5086 110.823 39.4826 110.241C39.4166 108.917 39.3176 108.997 39.0556 108.977C37.1786 108.833 36.7226 108.872 36.6926 108.444C36.6296 107.564 37.3006 107.617 38.1876 107.617Z" fill="black"/>
<path d="M111.709 18.3681C111.709 20.4681 111.618 20.4281 111.98 20.4291C113.419 20.4291 113.78 20.4761 114.317 20.5071C114.854 20.5381 114.805 20.9181 114.546 21.0771C113.83 21.5091 113.008 21.7341 112.172 21.7271C111.542 21.7881 111.837 21.5751 111.519 24.5041C111.338 26.1791 111.183 26.8461 110.859 26.6131C110.264 26.1851 110.371 23.3431 110.276 22.0211C110.254 21.7031 110.322 21.6731 108.724 21.6761C108.414 21.6761 107.995 21.7131 107.904 21.3351C107.765 20.7571 107.863 20.4741 109.004 20.4351C110.321 20.3871 110.368 20.4801 110.381 20.1871C110.407 18.9225 110.502 17.6602 110.666 16.4061C110.666 16.2687 110.721 16.1369 110.818 16.0398C110.915 15.9427 111.047 15.8881 111.184 15.8881C111.321 15.8881 111.453 15.9427 111.55 16.0398C111.647 16.1369 111.702 16.2687 111.702 16.4061C111.738 17.0595 111.74 17.7144 111.709 18.3681Z" fill="black"/>
<path d="M164.225 53.03C164.489 53.112 163.963 53.5921 163.525 53.7841C163.035 53.9364 162.529 54.0334 162.017 54.0731C161.9 54.0911 161.677 54.0731 161.64 54.2541C161.503 54.9361 161.445 55.9161 161.177 57.5541C160.977 58.7781 160.766 58.8651 160.577 58.8941C160.43 58.9161 160.177 58.7251 160.195 57.6101C160.219 56.3441 160.288 54.6301 160.323 54.4281C160.368 54.1741 159.875 54.2341 158.587 54.3721C158.458 54.3868 158.329 54.3552 158.221 54.283C158.114 54.2108 158.035 54.1026 158 53.978C157.965 53.8533 157.976 53.7202 158.03 53.6026C158.084 53.485 158.178 53.3905 158.296 53.336C158.875 53.0469 159.503 52.8676 160.148 52.807C160.263 52.78 160.396 52.859 160.461 52.675C160.692 52.027 160.631 50.4021 160.843 49.5751C161.069 48.6921 161.71 48.952 161.727 49.627C161.838 54.361 161.149 52.074 164.225 53.03Z" fill="black"/>
</svg>
